<?xml version="1.0" standalone="no"?>
<!DOCTYPE svg PUBLIC "-//W3C//DTD SVG 20010904//EN"
 "http://www.w3.org/TR/2001/REC-SVG-20010904/DTD/svg10.dtd">
<svg version="1.0" xmlns="http://www.w3.org/2000/svg"
 width="16.000000pt" height="16.000000pt" viewBox="0 0 16.000000 16.000000"
 preserveAspectRatio="xMidYMid meet">
<metadata>
Created by potrace 1.11, written by Peter Selinger 2001-2013
</metadata>
<g transform="translate(0.000000,16.000000) scale(0.003922,-0.003922)"
fill="#000000" stroke="none">
<path d="M436 3517 c-188 -264 -353 -616 -391 -836 -3 -19 -7 -37 -9 -40 -2
-3 -7 -31 -10 -62 -4 -31 -9 -67 -12 -80 -2 -13 -5 -76 -5 -139 -1 -103 3
-158 17 -240 2 -14 7 -41 10 -60 10 -62 72 -237 114 -322 198 -396 600 -745
1105 -958 247 -105 619 -203 890 -234 28 -4 68 -9 90 -11 254 -33 779 -38
1020 -11 17 2 66 7 110 11 44 3 87 8 95 10 8 2 40 7 70 10 30 3 67 8 82 11 15
3 41 7 59 9 50 7 159 78 210 137 38 43 53 75 83 163 94 288 129 568 104 855
-26 304 -158 602 -370 836 -123 136 -337 300 -427 327 -25 8 -65 20 -88 27
-63 19 -161 5 -218 -31 -25 -16 -47 -29 -49 -29 -2 0 -51 -29 -109 -65 -378
-231 -764 -420 -1077 -528 -74 -25 -207 -65 -239 -72 -9 -2 -36 -8 -61 -13
-107 -24 -205 -35 -320 -34 -363 0 -579 199 -626 577 -14 105 -5 457 11 485 1
3 6 32 10 65 3 32 8 62 10 65 2 3 6 24 9 46 9 56 13 76 25 120 6 22 11 42 11
46 0 6 -55 28 -71 28 -4 0 -28 -28 -53 -63z"/>
</g>
</svg>
